<?xml version="1.0" encoding="UTF-8" standalone="no"?>
<!-- Created with Inkscape (http://www.inkscape.org/) -->

<svg
   width="48"
   height="48"
   viewBox="0 0 12.699999 12.699999"
   version="1.1"
   id="svg5"
   xmlns="http://www.w3.org/2000/svg"
   xmlns:svg="http://www.w3.org/2000/svg">
  <defs
     id="defs2" />
  <g
     id="layer1">
    <path
       id="path11883"
       style="fill:#cc0000;stroke:none;stroke-width:1.5875;stroke-dasharray:none;stroke-dashoffset:45.3543"
       d="M 6.3499995 0 A 6.3499994 6.3499994 0 0 0 0 6.3499995 A 6.3499994 6.3499994 0 0 0 6.3499995 12.699999 A 6.3499994 6.3499994 0 0 0 12.699999 6.3499995 A 6.3499994 6.3499994 0 0 0 6.3499995 0 z M 6.3499995 1.5874999 A 4.7624998 4.7624998 0 0 1 11.112499 6.3499995 A 4.7624998 4.7624998 0 0 1 6.3499995 11.112499 A 4.7624998 4.7624998 0 0 1 1.5874999 6.3499995 A 4.7624998 4.7624998 0 0 1 6.3499995 1.5874999 z " />
  </g>
</svg>
