<?xml version="1.0" encoding="UTF-8" standalone="no"?>
<!-- Created with Inkscape (http://www.inkscape.org/) -->

<svg
   width="48"
   height="48"
   viewBox="0 0 12.699999 12.699999"
   version="1.1"
   id="svg5"
   inkscape:version="1.2.1 (9c6d41e410, 2022-07-14)"
   sodipodi:docname="full.svg"
   xmlns:inkscape="http://www.inkscape.org/namespaces/inkscape"
   xmlns:sodipodi="http://sodipodi.sourceforge.net/DTD/sodipodi-0.dtd"
   xmlns="http://www.w3.org/2000/svg"
   xmlns:svg="http://www.w3.org/2000/svg">
  <sodipodi:namedview
     id="namedview7"
     pagecolor="#ffffff"
     bordercolor="#000000"
     borderopacity="0.25"
     inkscape:showpageshadow="2"
     inkscape:pageopacity="0.0"
     inkscape:pagecheckerboard="0"
     inkscape:deskcolor="#d1d1d1"
     inkscape:document-units="px"
     showgrid="true"
     inkscape:zoom="12.500449"
     inkscape:cx="32.718825"
     inkscape:cy="35.438727"
     inkscape:window-width="2560"
     inkscape:window-height="1417"
     inkscape:window-x="-8"
     inkscape:window-y="-8"
     inkscape:window-maximized="1"
     inkscape:current-layer="layer1">
    <inkscape:grid
       type="xygrid"
       id="grid1049"
       empspacing="4" />
  </sodipodi:namedview>
  <defs
     id="defs2" />
  <g
     inkscape:label="Ebene 1"
     inkscape:groupmode="layer"
     id="layer1">
    <path
       id="rect1629"
       style="fill:#ff0000;stroke-width:2.11667;stroke-dasharray:none"
       d="M 1.0583333,0 C 0.4720172,0 0,0.4720172 0,1.0583333 V 11.641666 c 0,0.586316 0.4720172,1.058333 1.0583333,1.058333 H 11.641666 c 0.586316,0 1.058333,-0.472017 1.058333,-1.058333 V 1.0583333 C 12.699999,0.4720172 12.227982,0 11.641666,0 Z m 1.0583332,1.0583332 8.4666655,0 c 1.058334,0 1.058334,0 1.058334,1.0583333 l 0,8.4666655 c 0,1.058334 0,1.058334 -1.058333,1.058334 H 2.1166665 c -1.0583333,0 -1.0583333,0 -1.0583333,-1.058334 V 2.1166666 c 0,-1.0583334 0,-1.0583333 1.0583333,-1.0583334 z"
       sodipodi:nodetypes="ssssssssssssssssss" />
    <path
       style="fill:none;stroke:#ff0000;stroke-width:1.05833;stroke-dasharray:none"
       d="M 2.6458331,4.7624996 V 2.6458331 h 2.1166665"
       id="path1740" />
    <path
       style="fill:none;stroke:#ff0000;stroke-width:1.05833;stroke-dasharray:none"
       d="M 4.7624996,10.054166 H 2.6458331 V 7.9374993"
       id="path1740-1" />
    <path
       style="fill:none;stroke:#ff0000;stroke-width:1.05833;stroke-dasharray:none"
       d="M 10.318749,4.7624996 V 2.6458331 H 8.2020825"
       id="path1740-9" />
    <path
       style="fill:none;stroke:#ff0000;stroke-width:1.05833;stroke-dasharray:none"
       d="M 7.9374992,10.054166 H 10.054166 V 7.9374991"
       id="path1740-1-5" />
  </g>
</svg>
