<?xml version="1.0" encoding="UTF-8" standalone="no"?>
<!-- Created with Inkscape (http://www.inkscape.org/) -->

<svg
   width="48"
   height="48"
   viewBox="0 0 12.699999 12.699999"
   version="1.1"
   id="svg5"
   inkscape:version="1.2.1 (9c6d41e410, 2022-07-14)"
   sodipodi:docname="window.svg"
   xmlns:inkscape="http://www.inkscape.org/namespaces/inkscape"
   xmlns:sodipodi="http://sodipodi.sourceforge.net/DTD/sodipodi-0.dtd"
   xmlns="http://www.w3.org/2000/svg"
   xmlns:svg="http://www.w3.org/2000/svg">
  <sodipodi:namedview
     id="namedview7"
     pagecolor="#ffffff"
     bordercolor="#000000"
     borderopacity="0.25"
     inkscape:showpageshadow="2"
     inkscape:pageopacity="0.0"
     inkscape:pagecheckerboard="0"
     inkscape:deskcolor="#d1d1d1"
     inkscape:document-units="px"
     showgrid="true"
     inkscape:zoom="12.500449"
     inkscape:cx="32.638828"
     inkscape:cy="35.35873"
     inkscape:window-width="2560"
     inkscape:window-height="1417"
     inkscape:window-x="-8"
     inkscape:window-y="-8"
     inkscape:window-maximized="1"
     inkscape:current-layer="layer1">
    <inkscape:grid
       type="xygrid"
       id="grid1049"
       empspacing="4" />
  </sodipodi:namedview>
  <defs
     id="defs2" />
  <g
     inkscape:label="Ebene 1"
     inkscape:groupmode="layer"
     id="layer1">
    <path
       id="rect1629"
       style="fill:#ff0000;stroke-width:1.38889;stroke-dasharray:none"
       d="m 2.822222,2.1166665 c -0.3908774,0 -0.7055555,0.3048445 -0.7055555,0.6835069 v 6.8350691 c 0,0.3786625 0.3146781,0.6835065 0.7055555,0.6835065 h 7.0555552 c 0.3908778,0 0.7055558,-0.304844 0.7055558,-0.6835065 V 2.8001734 c 0,-0.3786624 -0.314678,-0.6835069 -0.7055558,-0.6835069 z m 1.411111,1.0583333 h 4.233333 c 1.0583333,0 1.0583333,0 1.0583333,1.0583332 v 4.233333 c 0,1.0583333 0,1.0583333 -1.0583333,1.0583333 H 4.233333 c -1.0583332,0 -1.0583332,0 -1.0583332,-1.0583333 V 4.233333 c 0,-1.0583332 0,-1.0583332 1.0583332,-1.0583332 z"
       sodipodi:nodetypes="ssssssssssssssssss" />
    <path
       style="fill:none;stroke:#ff0000;stroke-width:1.05833;stroke-dasharray:none"
       d="M 0.52916662,3.1749998 V 0.52916662 H 3.1749998"
       id="path1740"
       sodipodi:nodetypes="ccc" />
    <path
       style="fill:none;stroke:#ff0000;stroke-width:1.05833;stroke-dasharray:none"
       d="m 3.1749998,12.170832 -2.64583343,0 2.5e-7,-2.6458327"
       id="path1740-1"
       sodipodi:nodetypes="ccc" />
    <path
       style="fill:none;stroke:#ff0000;stroke-width:1.05833;stroke-dasharray:none"
       d="m 12.170832,3.1749998 0,-2.64583318 -2.6458327,0"
       id="path1740-9"
       sodipodi:nodetypes="ccc" />
    <path
       style="fill:none;stroke:#ff0000;stroke-width:1.05833;stroke-dasharray:none"
       d="m 9.5249993,12.170832 2.6458337,0 -10e-7,-2.6458327"
       id="path1740-1-5"
       sodipodi:nodetypes="ccc" />
  </g>
</svg>
